<svg width="24" height="19" viewBox="0 0 24 19" fill="none" xmlns="http://www.w3.org/2000/svg">
<path d="M22.9219 6.70306H17.3228C17.254 6.36513 17.1103 6.04695 16.9021 5.77201C16.694 5.49708 16.4267 5.27241 16.1201 5.1146C15.8135 4.9568 15.4753 4.86988 15.1306 4.86026C14.7859 4.85065 14.4434 4.91858 14.1285 5.05906C13.86 4.75174 13.5148 4.5211 13.1281 4.39064C12.7414 4.26017 12.3271 4.23455 11.9272 4.31637C11.6928 3.99616 11.3803 3.74129 11.0194 3.57604C10.6586 3.41079 10.2615 3.34065 9.86588 3.37231C9.64307 2.89631 9.26462 2.51052 8.79299 2.2786C8.32137 2.04668 7.78476 1.98251 7.27175 2.09667C6.75874 2.21083 6.29998 2.4965 5.97121 2.90653C5.64244 3.31656 5.46331 3.82643 5.46338 4.352V4.3595C5.03465 4.48143 4.65017 4.72438 4.356 5.05925C4.04112 4.91887 3.69873 4.85101 3.35411 4.86067C3.00948 4.87033 2.67143 4.95725 2.3649 5.11504C2.05837 5.27282 1.79119 5.49743 1.58308 5.77228C1.37496 6.04714 1.23124 6.36522 1.1625 6.70306H1.07812C0.792295 6.7034 0.518272 6.8171 0.316159 7.01922C0.114047 7.22133 0.000347333 7.49535 0 7.78118L0 8.43556C0.000347333 8.72139 0.114047 8.99541 0.316159 9.19752C0.518272 9.39963 0.792295 9.51333 1.07812 9.51368H1.11562V13.1407C1.11662 13.9733 1.44782 14.7716 2.03659 15.3603C2.62536 15.9491 3.42361 16.2803 4.25625 16.2813H4.45312V17.9062C4.4531 17.9493 4.46157 17.992 4.47805 18.0318C4.49453 18.0716 4.5187 18.1078 4.54918 18.1383C4.57965 18.1687 4.61583 18.1929 4.65565 18.2094C4.69547 18.2259 4.73815 18.2343 4.78125 18.2343H8.09381C8.13691 18.2343 8.17959 18.2259 8.21941 18.2094C8.25923 18.1929 8.29541 18.1687 8.32589 18.1383C8.35636 18.1078 8.38053 18.0716 8.39701 18.0318C8.41349 17.992 8.42196 17.9493 8.42194 17.9062V16.2813H15.5781V17.9062C15.578 17.9493 15.5865 17.992 15.603 18.0318C15.6195 18.0716 15.6436 18.1078 15.6741 18.1383C15.7046 18.1687 15.7408 18.1929 15.7806 18.2094C15.8204 18.2259 15.8631 18.2343 15.9062 18.2343H19.2188C19.2618 18.2343 19.3045 18.2259 19.3443 18.2094C19.3842 18.1929 19.4204 18.1687 19.4508 18.1383C19.4813 18.1078 19.5055 18.0716 19.5219 18.0318C19.5384 17.992 19.5469 17.9493 19.5469 17.9062V16.2813H19.7438C20.5764 16.2803 21.3746 15.9491 21.9634 15.3603C22.5522 14.7716 22.8834 13.9733 22.8844 13.1407V9.51368H22.9219C23.2077 9.51333 23.4817 9.39963 23.6838 9.19752C23.886 8.99541 23.9997 8.72139 24 8.43556V7.78118C23.9997 7.49535 23.886 7.22133 23.6838 7.01922C23.4817 6.8171 23.2077 6.7034 22.9219 6.70306ZM3.41981 5.51562C3.72241 5.51603 4.01905 5.59971 4.27725 5.7575C4.34943 5.80148 4.43581 5.81589 4.51836 5.79772C4.60091 5.77955 4.67326 5.73021 4.72031 5.66C4.84945 5.46788 5.01745 5.30499 5.21346 5.18185C5.40947 5.0587 5.62913 4.97803 5.85825 4.94506C5.94392 4.93273 6.02126 4.88706 6.07341 4.81798C6.12556 4.7489 6.1483 4.66202 6.13669 4.57625C6.10261 4.34205 6.11955 4.10325 6.18636 3.87621C6.25316 3.64917 6.36826 3.43925 6.52375 3.26084C6.67925 3.08243 6.87147 2.93973 7.08725 2.84253C7.30304 2.74533 7.53728 2.69592 7.77394 2.69768C8.12244 2.69721 8.46214 2.8071 8.74434 3.01159C9.02653 3.21608 9.23674 3.50468 9.34481 3.836C9.36999 3.91254 9.42244 3.97715 9.49219 4.0175C9.56194 4.05786 9.64409 4.07114 9.723 4.05481C10.0653 3.984 10.4213 4.02342 10.7399 4.16742C11.0584 4.31142 11.3232 4.5526 11.4962 4.85637C11.5335 4.92186 11.5922 4.97252 11.6624 4.99984C11.7326 5.02715 11.8101 5.02946 11.8819 5.00637C12.224 4.89562 12.5929 4.89952 12.9326 5.01749C13.2723 5.13545 13.5642 5.36104 13.764 5.66C13.8111 5.73021 13.8834 5.77955 13.966 5.79772C14.0485 5.81589 14.1349 5.80148 14.2071 5.7575C14.4232 5.62528 14.667 5.54468 14.9193 5.52195C15.1717 5.49923 15.4259 5.53498 15.6622 5.62645C15.8986 5.71792 16.1106 5.86263 16.2819 6.04935C16.4532 6.23606 16.5792 6.45976 16.65 6.70306H1.83488C1.93625 6.36102 2.14519 6.06077 2.4307 5.84686C2.71621 5.63296 3.06307 5.5168 3.41981 5.51562ZM7.76569 17.5781H5.10938V16.2813H7.76569V17.5781ZM18.8906 17.5781H16.2343V16.2813H18.8906V17.5781ZM22.2281 13.1407C22.2274 13.7993 21.9654 14.4308 21.4996 14.8966C21.0339 15.3623 20.4024 15.6243 19.7438 15.6251H4.25625C3.59758 15.6243 2.9661 15.3623 2.50035 14.8966C2.0346 14.4308 1.77262 13.7993 1.77187 13.1407V9.51368H22.2274L22.2281 13.1407ZM23.3438 8.43556C23.3436 8.5474 23.2991 8.65462 23.22 8.7337C23.1409 8.81279 23.0337 8.85728 22.9219 8.85743H1.07812C0.966282 8.85728 0.859063 8.81279 0.779979 8.7337C0.700894 8.65462 0.656399 8.5474 0.65625 8.43556V7.78118C0.656399 7.66934 0.700894 7.56212 0.779979 7.48304C0.859063 7.40395 0.966282 7.35946 1.07812 7.35931H22.9219C23.0337 7.35946 23.1409 7.40395 23.22 7.48304C23.2991 7.56212 23.3436 7.66934 23.3438 7.78118V8.43556Z" fill="black"/>
<path d="M13.1718 3.42175C13.4345 3.42175 13.6912 3.34386 13.9096 3.19793C14.128 3.052 14.2983 2.84459 14.3988 2.60192C14.4993 2.35924 14.5256 2.09221 14.4744 1.8346C14.4231 1.57698 14.2966 1.34034 14.1109 1.15461C13.9252 0.968873 13.6885 0.842388 13.4309 0.791144C13.1733 0.7399 12.9063 0.7662 12.6636 0.866718C12.4209 0.967236 12.2135 1.13746 12.0676 1.35586C11.9216 1.57425 11.8438 1.83102 11.8438 2.09369C11.8441 2.44579 11.9842 2.78336 12.2332 3.03233C12.4821 3.2813 12.8197 3.42135 13.1718 3.42175ZM13.1718 1.42188C13.3047 1.42188 13.4346 1.46128 13.5451 1.5351C13.6555 1.60892 13.7416 1.71384 13.7925 1.8366C13.8433 1.95935 13.8566 2.09443 13.8307 2.22475C13.8048 2.35507 13.7408 2.47478 13.6469 2.56873C13.5529 2.66269 13.4332 2.72667 13.3029 2.75259C13.1726 2.77851 13.0375 2.76521 12.9147 2.71436C12.792 2.66351 12.687 2.57741 12.6132 2.46693C12.5394 2.35645 12.5 2.22656 12.5 2.09369C12.5002 1.91557 12.571 1.74481 12.697 1.61886C12.8229 1.49292 12.9937 1.42207 13.1718 1.42188Z" fill="black"/>
</svg>
