<svg width="24" height="23" viewBox="0 0 24 23" fill="none" xmlns="http://www.w3.org/2000/svg">
<path d="M22.5489 13.0543V3.03115C22.5489 2.71695 22.3405 2.4409 22.0382 2.35488C15.4456 0.478711 8.47626 0.478711 1.88358 2.35488C1.58137 2.4409 1.37287 2.71695 1.37287 3.03115V13.151C0.513938 14.2317 0 15.5982 0 17.0827V21.3493C0 21.7376 0.314812 22.0524 0.703125 22.0524C1.09144 22.0524 1.40625 21.7376 1.40625 21.3493V20.599H22.5938V21.3493C22.5938 21.7376 22.9086 22.0524 23.2969 22.0524C23.6852 22.0524 24 21.7376 24 21.3493V17.0827C24 15.5536 23.4549 14.1495 22.5489 13.0543ZM6.32925 12.1596H17.6707C20.1425 12.1596 22.1944 13.9909 22.5417 16.3679H1.45833C1.80562 13.9909 3.85748 12.1596 6.32925 12.1596ZM9.89034 10.7533C6.33581 10.7637 6.23977 10.7284 5.67042 10.7875V8.17446C5.67042 8.04513 5.77566 7.9399 5.90498 7.9399H9.65578C9.78516 7.9399 9.89039 8.04513 9.89039 8.17446V10.7533H9.89034ZM18.3249 10.787C17.759 10.7286 17.637 10.7635 14.105 10.7533V8.17446C14.105 8.04513 14.2103 7.9399 14.3396 7.9399H18.0904C18.2197 7.9399 18.3249 8.04513 18.3249 8.17446V10.787H18.3249ZM21.1427 3.56618V11.7934C20.7066 11.5061 20.2331 11.2712 19.7311 11.0979V8.17446C19.7311 7.26973 18.9951 6.53365 18.0903 6.53365H14.3395C13.4348 6.53365 12.6987 7.26973 12.6987 8.17446V10.7533H11.2966V8.17446C11.2966 7.26973 10.5605 6.53365 9.65573 6.53365H5.90494C5.0002 6.53365 4.26412 7.26973 4.26412 8.17446V11.0996C3.73383 11.2832 3.23527 11.5352 2.77912 11.8453V3.56618C8.79806 1.94988 15.1237 1.94988 21.1427 3.56618ZM1.40625 19.1927V17.7741H22.5938V19.1927H1.40625Z" fill="#808080"/>
</svg>
