<svg width="30" height="30" viewBox="0 0 30 30" fill="none" xmlns="http://www.w3.org/2000/svg">
<path d="M23.5001 12.9998C23.2797 12.9089 23.0543 12.8304 22.8251 12.7648L22.5001 10.4998H21.5001V6.36984C20.9969 6.01992 20.5945 5.54386 20.3333 4.98939C20.0721 4.43492 19.9613 3.82153 20.012 3.21072C20.0626 2.59991 20.2729 2.01315 20.6219 1.50928C20.9708 1.0054 21.4461 0.602107 22.0001 0.339844V3.49984L23.5001 3.99984L25 3.49984V0.339844C25.554 0.602107 26.0293 1.0054 26.3782 1.50928C26.7272 2.01315 26.9375 2.59991 26.9881 3.21072C27.0388 3.82153 26.928 4.43492 26.6668 4.98939C26.4056 5.54386 26.0032 6.01992 25.5 6.36984V12.2698L24.125 13.2998C23.9222 13.1889 23.7135 13.0887 23.5001 12.9998Z" fill="#C6C5CA"/>
<path d="M23 6.5H24V13.5H23V6.5Z" fill="#898890"/>
<path d="M27.235 20.825C27.1058 21.277 26.9263 21.713 26.7 22.125L28.07 23.95L25.95 26.07L24.125 24.7C23.713 24.9263 23.277 25.1058 22.825 25.235L22.5 27.5H19.5L19.175 25.235C18.723 25.1058 18.287 24.9263 17.875 24.7L16.05 26.07L13.93 23.95L15.3 22.125C15.0737 21.713 14.8942 21.277 14.765 20.825L12.5 20.5V17.5L14.765 17.175C14.8942 16.723 15.0737 16.287 15.3 15.875L13.93 14.05L16.05 11.93L17.15 12.755L17.875 13.3C18.0779 13.189 18.2865 13.0889 18.5 13C18.7204 12.909 18.9458 12.8306 19.175 12.765L19.5 10.5H22.5L22.825 12.765C23.0542 12.8306 23.2796 12.909 23.5 13C23.7135 13.0889 23.9221 13.189 24.125 13.3L25.5 12.27L25.95 11.93L28.07 14.05L26.7 15.875C26.9263 16.287 27.1058 16.723 27.235 17.175L29.5 17.5V20.5L27.235 20.825Z" fill="#FF9811"/>
<path d="M14 18.5H15V19.5H14V18.5Z" fill="#CC7400"/>
<path d="M23.5 15.88C22.9245 15.4175 22.2323 15.1233 21.5 15.03C21.3341 15.0099 21.1671 14.9999 21 15C19.9391 15 18.9217 15.4214 18.1716 16.1716C17.4214 16.9217 17 17.9391 17 19C17.0017 19.6625 17.1674 20.3142 17.4824 20.8971C17.7973 21.4799 18.2517 21.9756 18.805 22.34C19.4561 22.7704 20.2194 23 21 23C21.3372 22.9994 21.673 22.9574 22 22.875C22.719 22.6893 23.3721 22.3071 23.8861 21.7712C24.4002 21.2353 24.7549 20.5669 24.9106 19.8408C25.0663 19.1148 25.0168 18.3597 24.7677 17.6601C24.5185 16.9606 24.0796 16.3442 23.5 15.88Z" fill="#FFD422"/>
<path d="M23.5 13V15.88C22.9245 15.4175 22.2323 15.1233 21.5 15.03V10.5H22.5L22.825 12.765C23.0542 12.8306 23.2796 12.909 23.5 13Z" fill="#FF9811"/>
<path d="M18.805 22.34C18.2439 21.3888 17.3818 20.6516 16.355 20.245L12.5 18.7L12 18.5C12 19.0304 11.7893 19.5391 11.4142 19.9142C11.0391 20.2893 10.5304 20.5 10 20.5C9.46957 20.5 8.96086 20.2893 8.58579 19.9142C8.21071 19.5391 8 19.0304 8 18.5L3.645 20.245C2.71648 20.6146 1.92031 21.2545 1.35959 22.0818C0.798868 22.9091 0.499413 23.8856 0.500001 24.885V29.5H19.5V24.885C19.5006 23.9897 19.2605 23.1107 18.805 22.34Z" fill="#3D9AE2"/>
<path d="M12 17.0796V18.4996C12 19.03 11.7893 19.5387 11.4142 19.9138C11.0391 20.2889 10.5304 20.4996 10 20.4996C9.46957 20.4996 8.96086 20.2889 8.58579 19.9138C8.21071 19.5387 8 19.03 8 18.4996V17.0796C8.63039 17.3566 9.31144 17.4996 10 17.4996C10.6886 17.4996 11.3696 17.3566 12 17.0796Z" fill="#FFC477"/>
<path d="M12 17.0796V18.0796C11.3696 18.3566 10.6886 18.4996 10 18.4996C9.31144 18.4996 8.63039 18.3566 8 18.0796V17.0796C8.63039 17.3566 9.31144 17.4996 10 17.4996C10.6886 17.4996 11.3696 17.3566 12 17.0796Z" fill="#FFB655"/>
<path d="M15 9.63499V9.99999H14.5C14.1895 9.99999 13.8833 9.9277 13.6056 9.78885C13.3279 9.64999 13.0863 9.44839 12.9 9.19999L12 8L10.32 9.345C9.78931 9.76966 9.12969 10.0007 8.45 9.99999H5V8.99999C5 7.67391 5.52678 6.40215 6.46447 5.46446C7.40215 4.52678 8.67392 4 10 4C11.3261 4 12.5979 4.52678 13.5355 5.46446C14.4732 6.40215 15 7.67391 15 8.99999V9.63499Z" fill="#57565C"/>
<path d="M14.5 10C14.1895 10 13.8833 9.92771 13.6056 9.78885C13.3279 9.65 13.0863 9.44839 12.9 9.2L12 8L10.32 9.345C9.78931 9.76967 9.12969 10.0007 8.45 10H5V12.5C5 12.62 5.005 12.74 5.015 12.855C5.08669 13.871 5.46723 14.8408 6.1056 15.6344C6.74396 16.428 7.60966 17.0075 8.58667 17.2953C9.56367 17.5831 10.6053 17.5653 11.5719 17.2445C12.5386 16.9236 13.384 16.3149 13.995 15.5C14.1754 15.2685 14.3313 15.0188 14.46 14.755C14.739 14.2105 14.9137 13.6187 14.975 13.01V13.005C14.98 12.955 14.985 12.905 14.985 12.855C14.995 12.74 15 12.62 15 12.5V10H14.5Z" fill="#FFC477"/>
<path d="M15 23.5H16V29.5H15V23.5Z" fill="#1E81CE"/>
<path d="M4 23.5H5V29.5H4V23.5Z" fill="#1E81CE"/>
<path d="M17 10H16V8.5C16 6.9087 15.3679 5.38258 14.2426 4.25736C13.1174 3.13214 11.5913 2.5 10 2.5C8.4087 2.5 6.88258 3.13214 5.75736 4.25736C4.63214 5.38258 4 6.9087 4 8.5V10H3V8.5C3 6.64348 3.7375 4.86301 5.05025 3.55025C6.36301 2.2375 8.14348 1.5 10 1.5C11.8565 1.5 13.637 2.2375 14.9497 3.55025C16.2625 4.86301 17 6.64348 17 8.5V10Z" fill="#FF9811"/>
<path d="M15.5 16H10V15H15.5C15.6326 15 15.7598 14.9473 15.8536 14.8536C15.9473 14.7598 16 14.6326 16 14.5V12.5H17V14.5C17 14.8978 16.842 15.2794 16.5607 15.5607C16.2794 15.842 15.8978 16 15.5 16Z" fill="#EE8700"/>
<path d="M7 11.5H8V12.5H7V11.5Z" fill="#EE8700"/>
<path d="M12 11.5H13V12.5H12V11.5Z" fill="#EE8700"/>
<path d="M20.5 12H21.5V13H20.5V12Z" fill="#CC7400"/>
<path d="M20.5 25H21.5V26H20.5V25Z" fill="#CC7400"/>
<path d="M24.8833 23.5967L25.5904 22.8896L26.2975 23.5967L25.5904 24.3038L24.8833 23.5967Z" fill="#CC7400"/>
<path d="M27 18.5H28V19.5H27V18.5Z" fill="#CC7400"/>
<path d="M24.8843 14.4053L25.5914 13.6982L26.2985 14.4053L25.5914 15.1124L24.8843 14.4053Z" fill="#CC7400"/>
<path d="M16.5004 9.5H15.5004C15.3247 9.50031 15.1523 9.54687 15.0004 9.635V12.5C15.0004 12.62 14.9954 12.74 14.9854 12.855C15.0154 12.8746 15.0472 12.8914 15.0804 12.905C15.2117 12.967 15.3551 12.9994 15.5004 13H16.5004C16.7398 13.0014 16.9714 12.9141 17.1504 12.755C17.2602 12.6623 17.3484 12.5467 17.4089 12.4162C17.4694 12.2858 17.5006 12.1437 17.5004 12V10.5C17.4996 10.235 17.394 9.98113 17.2066 9.79377C17.0192 9.6064 16.7653 9.50079 16.5004 9.5Z" fill="#EE8700"/>
<path d="M5 12.5C5 12.62 5.005 12.74 5.015 12.855C4.86077 12.9517 4.68201 13.002 4.5 13H3.5C3.23503 12.9992 2.98113 12.8936 2.79377 12.7062C2.6064 12.5189 2.50079 12.265 2.5 12V10.5C2.50079 10.235 2.6064 9.98113 2.79377 9.79377C2.98113 9.6064 3.23503 9.50079 3.5 9.5H4.5C4.67563 9.50031 4.84808 9.54687 5 9.635V12.5Z" fill="#EE8700"/>
</svg>
