<svg width="32" height="32" viewBox="0 0 32 32" fill="none" xmlns="http://www.w3.org/2000/svg">
<g clip-path="url(#clip0_1542_5221)">
<path d="M9.97723 8.25L9.71529 4.6875L7.06204 3.1875L4.15879 4.6875L3.52917 13.25L3.81204 14.1875L3.39129 15.125L3.18954 17.8687C3.17042 18.1286 3.26035 18.3847 3.43773 18.5756C3.6151 18.7666 3.86392 18.875 4.12454 18.875H9.74954C10.0101 18.875 10.2589 18.7666 10.4364 18.5756C10.6137 18.3847 10.7036 18.1287 10.6845 17.8687L10.1152 10.125L8.93704 9.1875L9.97723 8.25Z" fill="#F1F1F4"/>
<path d="M10.685 17.8687L10.1156 10.125L8.9375 9.1875L9.97768 8.25L9.71575 4.6875L7.0625 3.1875L6.9375 3.25206V18.875H9.75C10.0106 18.875 10.2594 18.7666 10.4368 18.5756C10.6142 18.3847 10.7041 18.1287 10.685 17.8687Z" fill="#E2DFF4"/>
<path d="M7.875 8.25C7.35725 8.25 6.9375 8.66975 6.9375 9.1875C6.9375 9.70525 7.35725 10.125 7.875 10.125H10.1156L9.97769 8.25H7.875Z" fill="#BEBCDD"/>
<path d="M6.31187 14.1875C6.31187 13.6697 5.89212 13.25 5.37437 13.25H3.52899L3.39111 15.125H5.37437C5.89212 15.125 6.31187 14.7053 6.31187 14.1875Z" fill="#E2DFF4"/>
<path d="M9.43445 0.86875C9.39839 0.378937 8.99051 0 8.49945 0H5.37444C4.88332 0 4.4755 0.378937 4.43944 0.86875L4.15869 4.6875H9.7152L9.43445 0.86875Z" fill="#FFB454"/>
<path d="M9.435 0.86875C9.39894 0.378937 8.99106 0 8.5 0H6.9375V4.6875H9.71575L9.435 0.86875Z" fill="#FF8659"/>
<path d="M23.5 21.7547H22.5196C22.3886 21.3623 22.2228 20.9848 22.0246 20.625H9.97544C9.77725 20.9847 9.61138 21.3623 9.48038 21.7547H8.5C7.98225 21.7547 7.5625 22.1744 7.5625 22.6922V25.1922C7.5625 25.7099 7.98225 26.1297 8.5 26.1297H9.48038C9.77175 27.0025 10.2342 27.8028 10.8464 28.4936L10.3556 29.3436C10.0966 29.792 10.2503 30.3654 10.6987 30.6243L12.8638 31.8743C13.3121 32.1331 13.8855 31.9795 14.1444 31.5311L14.6351 30.6813C15.0827 30.7716 15.5394 30.8173 15.9999 30.8173C16.4605 30.8173 16.9172 30.7717 17.3648 30.6813L17.8555 31.5311C18.1144 31.9795 18.6878 32.1331 19.1361 31.8743L21.3012 30.6243C21.7496 30.3654 21.9032 29.7921 21.6443 29.3436L21.1535 28.4936C21.7657 27.8028 22.2281 27.0026 22.5195 26.1297H23.5C24.0177 26.1297 24.4375 25.7099 24.4375 25.1922V22.6922C24.4375 22.1744 24.0177 21.7547 23.5 21.7547ZM16 26.4423C14.6193 26.4423 13.5 25.3229 13.5 23.9423C13.5 22.5616 14.6193 21.4423 16 21.4423C17.3807 21.4423 18.5 22.5616 18.5 23.9423C18.5 25.3229 17.3807 26.4423 16 26.4423Z" fill="#E2DFF4"/>
<path d="M23.5 21.7547H22.5196C22.3886 21.3623 22.2228 20.9848 22.0246 20.625H16V21.4422C17.3807 21.4422 18.5 22.5616 18.5 23.9422C18.5 25.3229 17.3807 26.4422 16 26.4422V30.8172C16.4606 30.8172 16.9173 30.7716 17.3649 30.6812L17.8556 31.5311C18.1144 31.9794 18.6878 32.1331 19.1362 31.8742L21.3013 30.6242C21.7497 30.3653 21.9033 29.792 21.6444 29.3436L21.1536 28.4935C21.7658 27.8027 22.2282 27.0025 22.5196 26.1296H23.5C24.0177 26.1296 24.4375 25.7099 24.4375 25.1921V22.6921C24.4375 22.1744 24.0177 21.7547 23.5 21.7547Z" fill="#BEBCDD"/>
<path d="M19.4375 23.9424C19.4375 25.8378 17.8954 27.3799 16 27.3799C14.1046 27.3799 12.5625 25.8378 12.5625 23.9424C12.5625 22.0469 14.1046 20.5049 16 20.5049C17.8954 20.5049 19.4375 22.0469 19.4375 23.9424ZM14.4375 23.9424C14.4375 24.8039 15.1384 25.5049 16 25.5049C16.8616 25.5049 17.5625 24.8039 17.5625 23.9424C17.5625 23.0808 16.8616 22.3799 16 22.3799C15.1384 22.3799 14.4375 23.0808 14.4375 23.9424Z" fill="#F1F1F4"/>
<path d="M16 20.5049V22.3799C16.8616 22.3799 17.5625 23.0808 17.5625 23.9424C17.5625 24.8039 16.8616 25.5049 16 25.5049V27.3799C17.8954 27.3799 19.4375 25.8378 19.4375 23.9424C19.4375 22.0469 17.8954 20.5049 16 20.5049Z" fill="#E2DFF4"/>
<path d="M31 22.6923H1C0.48225 22.6923 0.0625 22.2725 0.0625 21.7548V17.9375C0.0625 17.4198 0.48225 17 1 17H13.8125V7.31253C13.8125 7.00491 13.9634 6.71685 14.2164 6.54172L19.6331 2.79172C19.9198 2.59316 20.293 2.57028 20.6018 2.7321C20.9107 2.89397 21.1042 3.21385 21.1042 3.56253V5.52322L25.0498 2.79172C25.3365 2.59328 25.7097 2.57028 26.0186 2.7321C26.3274 2.89397 26.521 3.21385 26.521 3.56253V5.52322L30.4665 2.79172C30.7532 2.59316 31.1264 2.57028 31.4352 2.7321C31.7439 2.89397 31.9375 3.21385 31.9375 3.56253V21.7548C31.9375 22.2725 31.5177 22.6923 31 22.6923Z" fill="#FF6B6B"/>
<path d="M31.4351 2.7321C31.1263 2.57028 30.753 2.59316 30.4663 2.79172L26.5208 5.52322V3.56253C26.5208 3.21385 26.3273 2.89397 26.0184 2.7321C25.7096 2.57028 25.3363 2.59328 25.0496 2.79172L22.875 4.29728V22.6923H31C31.5177 22.6923 31.9375 22.2725 31.9375 21.7548V3.56253C31.9375 3.21385 31.7439 2.89397 31.4351 2.7321Z" fill="#FF405C"/>
<path d="M18.5 10.4375H27.25V17.9375H18.5V10.4375Z" fill="#C8FFFF"/>
<path d="M22.875 10.4375H27.25V17.9375H22.875V10.4375Z" fill="#ACCEFF"/>
<path d="M27.25 9.5H18.5C17.9822 9.5 17.5625 9.91975 17.5625 10.4375V17.9375C17.5625 18.4552 17.9822 18.875 18.5 18.875H27.25C27.7677 18.875 28.1875 18.4552 28.1875 17.9375V10.4375C28.1875 9.91975 27.7677 9.5 27.25 9.5ZM26.3125 13.25H23.8125V11.375H26.3125V13.25ZM21.9375 11.375V13.25H19.4375V11.375H21.9375ZM19.4375 15.125H21.9375V17H19.4375V15.125ZM23.8125 17V15.125H26.3125V17H23.8125Z" fill="#FFB454"/>
<path d="M27.25 9.5H22.875V18.875H27.25C27.7677 18.875 28.1875 18.4552 28.1875 17.9375V10.4375C28.1875 9.91975 27.7677 9.5 27.25 9.5ZM26.3125 17H23.8125V15.125H26.3125V17ZM26.3125 13.25H23.8125V11.375H26.3125V13.25Z" fill="#FF8659"/>
</g>
<defs>
<clipPath id="clip0_1542_5221">
<rect width="32" height="32" fill="white"/>
</clipPath>
</defs>
</svg>
