<svg width="32" height="32" viewBox="0 0 32 32" fill="none" xmlns="http://www.w3.org/2000/svg">
<path d="M6.26039 14.6085C5.87619 14.6092 5.5642 14.2982 5.56348 13.9141C5.56315 13.7288 5.63672 13.5511 5.76787 13.4203L12.7244 6.46381C13.0007 6.19695 13.4411 6.20458 13.7081 6.4809C13.9684 6.75051 13.9684 7.17788 13.7081 7.44742L6.75154 14.404C6.62137 14.5345 6.44476 14.6081 6.26039 14.6085Z" fill="#455A64"/>
<path d="M25.7391 14.6086C25.5544 14.6089 25.3772 14.5359 25.2465 14.4054L18.29 7.44895C18.0231 7.17263 18.0307 6.73221 18.3071 6.46528C18.5767 6.20493 19.0041 6.20493 19.2736 6.46528L26.2301 13.4218C26.5014 13.6939 26.5007 14.1344 26.2286 14.4056C26.0986 14.5352 25.9226 14.6082 25.7391 14.6086Z" fill="#455A64"/>
<path d="M3.47824 13.2173H28.5217C30.4427 13.2173 31.9999 14.7745 31.9999 16.6955V25.0433C31.9999 26.9643 30.4427 28.5216 28.5217 28.5216H3.47824C1.55726 28.5216 0 26.9643 0 25.0433V16.6955C0 14.7745 1.55726 13.2173 3.47824 13.2173Z" fill="#4CAF50"/>
<path d="M3.47839 25.7392C3.09419 25.7392 2.78271 25.4277 2.78271 25.0435V16.6957C2.78271 16.3115 3.09419 16 3.47839 16H7.6523C8.03649 16 8.34797 16.3115 8.34797 16.6957C8.34797 17.0799 8.03649 17.3913 7.6523 17.3913H4.17406V25.0435C4.17406 25.4277 3.86258 25.7392 3.47839 25.7392Z" fill="#FAFAFA"/>
<path d="M6.26102 21.5652H3.47839C3.09419 21.5652 2.78271 21.2537 2.78271 20.8695C2.78271 20.4853 3.09419 20.1738 3.47839 20.1738H6.26102C6.64521 20.1738 6.95669 20.4853 6.95669 20.8695C6.95669 21.2537 6.64521 21.5652 6.26102 21.5652Z" fill="#FAFAFA"/>
<path d="M14.6088 25.7392C14.4242 25.7395 14.247 25.6664 14.1163 25.536L11.1306 22.5489V25.0435C11.1306 25.4277 10.8191 25.7392 10.4349 25.7392C10.0507 25.7392 9.73926 25.4277 9.73926 25.0435V16.6957C9.73926 16.3115 10.0507 16 10.4349 16H12.5219C14.0587 16 15.3045 17.2458 15.3045 18.7826C15.3045 20.3194 14.0587 21.5653 12.5219 21.5653H12.1142L15.0999 24.551C15.372 24.8223 15.3725 25.2628 15.1012 25.5348C14.9707 25.6656 14.7936 25.7391 14.6088 25.7392ZM11.1306 20.1739H12.5219C13.2903 20.1739 13.9132 19.551 13.9132 18.7826C13.9132 18.0142 13.2903 17.3913 12.5219 17.3913H11.1306V20.1739Z" fill="#FAFAFA"/>
<path d="M21.5654 25.7392H17.3915C17.0073 25.7392 16.6958 25.4277 16.6958 25.0435V16.6957C16.6958 16.3115 17.0073 16 17.3915 16H21.5654C21.9496 16 22.261 16.3115 22.261 16.6957C22.261 17.0799 21.9496 17.3913 21.5654 17.3913H18.0871V24.3479H21.5654C21.9496 24.3479 22.261 24.6594 22.261 25.0436C22.261 25.4277 21.9496 25.7392 21.5654 25.7392Z" fill="#FAFAFA"/>
<path d="M20.1741 21.5652H17.3915C17.0073 21.5652 16.6958 21.2537 16.6958 20.8695C16.6958 20.4853 17.0073 20.1738 17.3915 20.1738H20.1741C20.5583 20.1738 20.8698 20.4853 20.8698 20.8695C20.8698 21.2537 20.5583 21.5652 20.1741 21.5652Z" fill="#FAFAFA"/>
<path d="M28.5219 25.7392H24.348C23.9638 25.7392 23.6523 25.4277 23.6523 25.0435V16.6957C23.6523 16.3115 23.9638 16 24.348 16H28.5219C28.9061 16 29.2176 16.3115 29.2176 16.6957C29.2176 17.0799 28.9061 17.3913 28.5219 17.3913H25.0437V24.3479H28.5219C28.9061 24.3479 29.2176 24.6594 29.2176 25.0436C29.2176 25.4277 28.9061 25.7392 28.5219 25.7392Z" fill="#FAFAFA"/>
<path d="M27.1306 21.5652H24.348C23.9638 21.5652 23.6523 21.2537 23.6523 20.8695C23.6523 20.4853 23.9638 20.1738 24.348 20.1738H27.1306C27.5148 20.1738 27.8263 20.4853 27.8263 20.8695C27.8263 21.2537 27.5148 21.5652 27.1306 21.5652Z" fill="#FAFAFA"/>
<path d="M15.9997 10.435C14.0787 10.435 12.5215 8.87773 12.5215 6.95675C12.5215 5.03578 14.0787 3.47852 15.9997 3.47852C17.9207 3.47852 19.478 5.03578 19.478 6.95675C19.478 8.87773 17.9208 10.435 15.9997 10.435Z" fill="#607D8B"/>
</svg>
