<svg width="24" height="25" viewBox="0 0 24 25" fill="none" xmlns="http://www.w3.org/2000/svg">
<path d="M23.5312 23.5623H23.0625V11.6531C23.0625 11.3943 22.8526 11.1844 22.5938 11.1844H20.3497V5.14574C20.3497 4.97226 20.2539 4.81293 20.1006 4.73165L12.2256 0.554428C12.0803 0.477366 11.9053 0.482006 11.7644 0.56685C11.6234 0.651647 11.5372 0.804085 11.5372 0.968522V5.74978H6.79345C6.53461 5.74978 6.3247 5.95968 6.3247 6.21853V11.0805C6.3247 11.3393 6.53461 11.5492 6.79345 11.5492C7.0523 11.5492 7.2622 11.3393 7.2622 11.0805V6.68728H13.6372V8.55937H12.006C11.7471 8.55937 11.5372 8.76928 11.5372 9.02812C11.5372 9.28697 11.7471 9.49687 12.006 9.49687H13.6372V11.1844H12.006C11.7471 11.1844 11.5372 11.3943 11.5372 11.6531C11.5372 11.912 11.7471 12.1219 12.006 12.1219H13.6372V13.8094H12.006C11.7471 13.8094 11.5372 14.0193 11.5372 14.2781C11.5372 14.537 11.7471 14.7469 12.006 14.7469H13.6372V16.4344H12.006C11.7471 16.4344 11.5372 16.6443 11.5372 16.9031C11.5372 17.162 11.7471 17.3719 12.006 17.3719H13.6372V19.0594H12.006C11.7471 19.0594 11.5372 19.2693 11.5372 19.5281C11.5372 19.787 11.7471 19.9969 12.006 19.9969H13.6372V21.6844H12.006C11.7471 21.6844 11.5372 21.8943 11.5372 22.1531C11.5372 22.412 11.7471 22.6219 12.006 22.6219H13.6372V23.5623H11.25V14.9373C11.25 14.6784 11.0401 14.4685 10.7812 14.4685H1.40625C1.14741 14.4685 0.9375 14.6784 0.9375 14.9373V23.5623H0.46875C0.209906 23.5623 0 23.7722 0 24.031C0 24.2899 0.209906 24.4998 0.46875 24.4998H23.5312C23.7901 24.4998 24 24.2899 24 24.031C24 23.7722 23.7901 23.5623 23.5312 23.5623ZM10.3125 23.5623H1.875V15.406H10.3125V23.5623ZM16.125 11.6531V23.5623H14.5747V6.21853C14.5747 5.95968 14.3648 5.74978 14.106 5.74978H12.4747V1.74777L19.4122 5.42774V11.1844H16.5938C16.3349 11.1844 16.125 11.3943 16.125 11.6531ZM22.125 13.8094H19.5938C19.3349 13.8094 19.125 14.0193 19.125 14.2781C19.125 14.537 19.3349 14.7469 19.5938 14.7469H22.125V16.4344H19.5938C19.3349 16.4344 19.125 16.6443 19.125 16.9031C19.125 17.162 19.3349 17.3719 19.5938 17.3719H22.125V19.0594H19.5938C19.3349 19.0594 19.125 19.2693 19.125 19.5281C19.125 19.787 19.3349 19.9969 19.5938 19.9969H22.125V21.6844H20.7031C20.4443 21.6844 20.2344 21.8943 20.2344 22.1531C20.2344 22.412 20.4443 22.6219 20.7031 22.6219H22.125V23.5623H17.0625V12.1219H22.125V13.8094Z" fill="#808080"/>
</svg>
