<svg width="20" height="19" viewBox="0 0 20 19" fill="none" xmlns="http://www.w3.org/2000/svg">
<path fill-rule="evenodd" clip-rule="evenodd" d="M4.48311 0.315291C0.811517 1.49738 -0.826136 5.50569 0.40482 9.32952C1.02947 11.1301 2.04534 12.7485 3.38004 14.0762C5.21101 15.8545 7.22254 17.4194 9.38488 18.7491L9.63044 18.8961C9.86561 19.0369 10.1598 19.0344 10.3926 18.8897L10.6218 18.7473C12.7812 17.4194 14.7927 15.8545 16.6174 14.0824C17.9584 12.7485 18.9743 11.1301 19.5937 9.34515C20.8291 5.50801 19.1847 1.4978 15.512 0.31535L15.2463 0.236231C13.5624 -0.226913 11.773 0.00130112 10.2645 0.855348L9.99639 1.01429L9.73299 0.856235C8.14194 -0.04656 6.2404 -0.249969 4.48311 0.315291ZM9.37465 2.35427L9.57138 2.49538C9.83072 2.68111 10.1806 2.67742 10.436 2.48625C11.766 1.49057 13.4873 1.20082 15.0641 1.70669C17.9097 2.62284 19.2047 5.78096 18.2064 8.88199C17.665 10.4417 16.7687 11.8696 15.5916 13.0405L15.0636 13.5421C13.641 14.8642 12.1026 16.061 10.4691 17.1156L10.0013 17.4098L10.144 17.4998C8.08049 16.2308 6.15375 14.7319 4.40582 13.0343C3.23505 11.8696 2.33877 10.4417 1.79207 8.86635C0.798077 5.77801 2.08746 2.62212 4.93153 1.70646C6.43331 1.22339 8.07056 1.46289 9.37465 2.35427ZM13.8703 3.98374C13.4855 3.86093 13.0739 4.07304 12.951 4.45749C12.8281 4.84194 13.0404 5.25316 13.4252 5.37597C14.1814 5.61735 14.7206 6.29803 14.7881 7.10096C14.822 7.50313 15.1757 7.80175 15.5782 7.76794C15.9807 7.73413 16.2796 7.3807 16.2457 6.97853C16.1288 5.58859 15.1917 4.40551 13.8703 3.98374Z" fill="#429523"/>
</svg>
